<svg xmlns="http://www.w3.org/2000/svg" xmlns:xlink="http://www.w3.org/1999/xlink" viewBox="0 0 987.27 290.73"><defs><style>.cls-1{fill:url(#New_Gradient_Swatch_1);}.cls-2{fill:url(#New_Gradient_Swatch_1-2);}.cls-3{fill:url(#New_Gradient_Swatch_1-3);}.cls-4{fill:url(#New_Gradient_Swatch_1-4);}.cls-5{fill:url(#New_Gradient_Swatch_1-5);}.cls-6{fill:url(#New_Gradient_Swatch_1-6);}.cls-7{fill:#343c44;}</style><linearGradient id="New_Gradient_Swatch_1" x1="-12.56" y1="141.68" x2="309.64" y2="149.17" gradientUnits="userSpaceOnUse"><stop offset="0" stop-color="#e0def0"/><stop offset="0.33" stop-color="#c2c7d7"/><stop offset="0.65" stop-color="#8e9292"/><stop offset="1" stop-color="#9ba4bc"/></linearGradient><linearGradient id="New_Gradient_Swatch_1-2" x1="-12.58" y1="142.62" x2="309.62" y2="150.11" xlink:href="#New_Gradient_Swatch_1"/><linearGradient id="New_Gradient_Swatch_1-3" x1="-12.61" y1="143.88" x2="309.59" y2="151.38" xlink:href="#New_Gradient_Swatch_1"/><linearGradient id="New_Gradient_Swatch_1-4" x1="-12.68" y1="146.77" x2="309.53" y2="154.26" xlink:href="#New_Gradient_Swatch_1"/><linearGradient id="New_Gradient_Swatch_1-5" x1="-12.65" y1="145.64" x2="309.55" y2="153.13" xlink:href="#New_Gradient_Swatch_1"/><linearGradient id="New_Gradient_Swatch_1-6" x1="-12.58" y1="142.63" x2="309.62" y2="150.13" xlink:href="#New_Gradient_Swatch_1"/></defs><g id="Camada_2" data-name="Camada 2"><g id="Layer_1" data-name="Layer 1"><path class="cls-1" d="M226,108.48a87.28,87.28,0,0,0-5.54-10.29,86.25,86.25,0,0,0-5.53-7.8c-1.67-2.11-3.45-4.16-5.35-6.13l-.18-.18c-1.78-1.84-3.63-3.57-5.53-5.21s-3.64-3-5.53-4.38S194.7,72,192.82,70.8s-3.66-2.14-5.53-3.09-3.67-1.76-5.53-2.54c-1.46-.61-2.93-1.16-4.41-1.68l-1.13-.38c-1.82-.61-3.67-1.15-5.53-1.63s-3.67-.88-5.53-1.22-3.68-.6-5.53-.8S156,59.12,154.1,59s-3.69-.1-5.53,0l-1.08,0-1.07,0-1.07.06-1.08.09-1.07.08-1.07.11-1.08.13-1.07.13c-.36,0-.72.09-1.07.15l-1.08.17-1.07.17-1.07.19-1.08.22-1.07.22-1.07.24-1.08.26-1.07.27-1.07.28-1.08.31-1.07.31L126,62.8l-1.08.36-1,.33-.07,0-1.07.38-1.08.41-1.07.41-1.07.44-1.08.46-1.07.46-1.07.51-1.08.51-1.07.51-1.08.57-1.07.57-.81.43-.26.16c-.36.2-.71.44-1.08.65l-1.07.65c-.36.21-.72.42-1.07.65l-1.08.64c-.35.24-.71.46-1.07.7s-.71.51-1.07.76l-1.08.77-1.07.76c-.35.26-.72.49-1.07.76s-.72.58-1.08.86-.71.6-1.07.89l-1.07.89c-.36.3-.72.58-1.08.89s-.72.61-1.07.93-.71.7-1.07,1l-1.08,1c-.35.34-.72.68-1.07,1s-.71.67-1,1l0,0c-.37.38-.72.78-1.08,1.17s-.72.78-1.07,1.18l-1.07,1.2c-.37.43-.72.87-1.08,1.3s-.72.86-1.07,1.3-.72.93-1.07,1.4-.72,1-1.08,1.44-.72,1-1.07,1.48-.72,1.07-1.07,1.6-.73,1.07-1.08,1.62-.71,1.19-1.07,1.78-.73,1.19-1.07,1.8-.72,1.33-1.08,2-.73,1.36-1.07,2-.72,1.5-1.07,2.25-.73,1.61-1.08,2.41-.73,1.71-1.07,2.57c-.62,1.6-1.18,3.21-1.71,4.83q-1,3-1.71,6c-.71,2.84-1.28,5.71-1.71,8.59a90.45,90.45,0,0,0,0,26.49q.65,4.33,1.71,8.6.75,3,1.71,6c.53,1.62,1.09,3.23,1.71,4.82.34.87.71,1.72,1.07,2.57s.7,1.61,1.08,2.41.7,1.51,1.07,2.26.71,1.37,1.07,2,.7,1.34,1.08,2,.71,1.19,1.07,1.79.7,1.2,1.07,1.79.72,1.07,1.08,1.61.7,1.07,1.07,1.6.71,1,1.07,1.49.71,1,1.08,1.44.7.94,1.07,1.4l1.07,1.29c.36.44.71.88,1.08,1.3s.71.81,1.07,1.21l1.07,1.17c.36.39.71.79,1.08,1.17l0,0c.34.36.7.7,1,1.06l1.07,1.07,1.08,1,1.07,1,1.07,1,1.08.91,1.07.91c.35.29.72.56,1.07.84s.72.57,1.08.84.71.54,1.07.81l1.07.77,1.08.77,1.07.71,1.07.71,1.08.68,1.07.65,1.07.65,1.08.6,1.07.6,1.07.57,1.08.54c.36.18.71.37,1.07.54l1.08.51,1.07.49,1.07.49,1.08.43,1.07.44,1.07.43,1.08.39c.35.13.71.27,1.07.39l1.07.37,1.08.34,1.07.35,1.07.31,1.08.3c.35.1.71.21,1.07.3l1.07.26,1.08.25,1.07.26c.36.07.72.13,1.07.21l1.08.21,1.07.2,1.07.17,1.08.17.7.11.37,0,1.07.13,1.08.12,1.07.11,1.07.09,1.08.08,1.07.07,1.07,0,1.08,0c1.84,0,3.69,0,5.53-.05s3.69-.23,5.53-.43c.68-.08,1.36-.15,2-.24,1.17-.16,2.33-.36,3.49-.57,1.85-.34,3.7-.73,5.53-1.2s3.7-1,5.53-1.63,3.71-1.32,5.54-2.08c1.29-.54,2.58-1.1,3.86-1.71.56-.27,1.11-.56,1.67-.84q2.81-1.43,5.53-3.08t5.53-3.67q2.84-2.06,5.53-4.38c1.9-1.64,3.75-3.38,5.53-5.22.06-.07.12-.12.19-.19q2.84-3,5.34-6.12a84.86,84.86,0,0,0,5.53-7.8,87.07,87.07,0,0,0,10.07-22.63c.37-1.27.69-2.54,1-3.82a90.45,90.45,0,0,0,0-41.65c-.31-1.28-.63-2.56-1-3.82A87.47,87.47,0,0,0,226,108.48Zm-5.54,60.12a78.84,78.84,0,0,1-5.53,14.65,78.66,78.66,0,0,1-11.06,16.53c-.8.91-1.62,1.82-2.47,2.7q-1.5,1.54-3.06,3c-1.79,1.66-3.64,3.21-5.53,4.66s-3.65,2.65-5.53,3.84-3.66,2.19-5.53,3.15c-.68.35-1.36.7-2,1-1.14.54-2.32,1-3.49,1.49q-2.73,1.13-5.53,2c-1.83.58-3.67,1.1-5.53,1.53s-3.68.79-5.53,1.08-3.68.5-5.53.64-3.69.21-5.53.21l-1.08,0-1.07,0c-.36,0-.71-.05-1.07-.06l-1.08-.07-1.07-.06-1.07-.07c-.36,0-.72,0-1.08-.09s-.71-.11-1.07-.15-.72-.1-1.07-.15l-1.08-.15-1.07-.14c-.36-.06-.72-.1-1.07-.17s-.72-.16-1.08-.23l-1.07-.23-1.07-.24-1.08-.23c-.35-.09-.71-.15-1.07-.24s-.71-.23-1.07-.32l-1.08-.33-1.07-.32-1.07-.32c-.36-.12-.72-.21-1.08-.33s-.71-.28-1.07-.42l-1.07-.41-1.08-.42-1.07-.41-1.07-.43c-.37-.16-.72-.35-1.08-.52s-.71-.34-1.07-.51l-1.07-.52c-.36-.18-.72-.33-1.08-.52s-.72-.35-1.07-.54-.71-.43-1.08-.63l-1.07-.62c-.36-.21-.72-.41-1.07-.63s-.72-.4-1.08-.62l-1.07-.71c-.36-.23-.71-.5-1.07-.74l-1.08-.74c-.35-.25-.72-.49-1.07-.75s-.72-.5-1.07-.76-.71-.6-1.08-.88-.71-.59-1.07-.88-.72-.58-1.07-.88-.73-.57-1.08-.87l-1.07-1-1.07-1-1.08-1c-.35-.35-.72-.67-1.07-1-.07-.08-.15-.14-.23-.22-.29-.3-.56-.62-.84-.93s-.72-.77-1.08-1.17-.72-.8-1.07-1.21-.72-.87-1.07-1.3-.73-.86-1.08-1.3-.71-1-1.07-1.44-.73-1-1.07-1.44-.72-1.05-1.08-1.58-.73-1.06-1.07-1.6-.72-1.18-1.07-1.77-.73-1.19-1.08-1.79-.72-1.34-1.07-2-.73-1.39-1.07-2.1-.74-1.5-1.08-2.25-.72-1.69-1.07-2.53-.73-1.85-1.07-2.78-.74-2.07-1.08-3.12c-.39-1.22-.74-2.44-1.07-3.67-.4-1.5-.76-3-1.07-4.54-.45-2.18-.81-4.38-1.08-6.58a81.46,81.46,0,0,1,0-19.49q.41-3.31,1.08-6.58c.31-1.52.67-3,1.07-4.55.33-1.23.68-2.45,1.07-3.66.34-1,.7-2.09,1.08-3.13s.69-1.85,1.07-2.77.7-1.7,1.07-2.53.71-1.51,1.08-2.26.7-1.4,1.07-2.1.7-1.34,1.07-2,.72-1.2,1.08-1.8.7-1.18,1.07-1.77.71-1.06,1.07-1.6.71-1.06,1.08-1.58.71-1,1.07-1.44.7-1,1.07-1.44.72-.87,1.08-1.3.7-.87,1.07-1.3.71-.81,1.07-1.21.71-.79,1.08-1.18l.85-.93.22-.21c.35-.36.72-.68,1.07-1l1.08-1c.36-.34.71-.7,1.07-1l1.07-1c.36-.31.72-.59,1.08-.89l1.07-.89c.36-.3.71-.61,1.07-.89l1.08-.83c.35-.27.72-.51,1.07-.77l1.07-.77,1.08-.77c.36-.24.71-.49,1.07-.72s.72-.43,1.07-.66l1.08-.65,1.07-.65c.33-.19.64-.41,1-.59l.11-.06,1.08-.57,1.07-.58,1.08-.54,1.07-.51,1.07-.52,1.08-.46,1.07-.47,1.07-.43,1.08-.42,1.07-.41,1.07-.36,1.08-.37,1.07-.35,1.07-.31,1.08-.31,1.07-.29,1.07-.26,1.08-.27,1.07-.22,1.07-.23,1.08-.21,1.07-.17,1.07-.18,1.08-.15L140,70.6l1.07-.13,1.08-.1,1.07-.08,1.07-.09,1.08,0,1.07,0,1.07,0c.36,0,.72,0,1.08,0,1.84,0,3.69.07,5.53.21s3.69.35,5.53.63,3.7.64,5.53,1.07,3.71.94,5.53,1.53,3.71,1.27,5.53,2,3.72,1.62,5.54,2.55,3.72,2,5.53,3.16,3.73,2.47,5.53,3.85,3.74,3,5.53,4.66c1,1,2.06,2,3.05,3s1.68,1.79,2.48,2.71A78.66,78.66,0,0,1,214.94,112a79.38,79.38,0,0,1,5.53,14.65A80.91,80.91,0,0,1,220.47,168.6Z"/><path class="cls-2" d="M266.49,56.06a142,142,0,0,0-29.44-28.4c-1.06-.75-2.13-1.48-3.2-2.21l-2.33-1.55q-2.73-1.75-5.53-3.39t-5.53-3c-1.82-.95-3.67-1.86-5.53-2.72s-3.67-1.66-5.53-2.42-3.67-1.47-5.53-2.14-3.67-1.29-5.53-1.87-3.67-1.13-5.53-1.62-3.67-.92-5.53-1.33-3.68-.75-5.53-1.08-3.67-.6-5.53-.85-3.67-.46-5.53-.63-3.67-.33-5.53-.42-3.68-.13-5.53-.15c-.44,0-.87,0-1.31,0h-19.5l-1,0c-.36,0-.71,0-1.07,0l-1.08,0-1.07,0c-.36,0-.72,0-1.07,0l-1.08,0-1.07.05-1.07.08c-.36,0-.72.06-1.08.09l-1.07.08-1.07.09L126,2.85c-.36,0-.72,0-1.08.09s-.71.08-1.07.12l-1.07.14-1.08.14-1.07.14c-.36,0-.72.09-1.07.15s-.72.08-1.08.14l-1.07.15-1.07.2-1.08.2-1.07.2-1.07.2c-.36.07-.72.12-1.08.2s-.71.12-1.07.2-.71.17-1.07.24l-1.07.26-1.08.26-1.07.26-1.07.25-1.08.26-1.07.29-1.07.32-1.08.31-1.07.32-1.07.32-1.08.31-1.07.35L96,9.24l-1.08.38L93.84,10l-1.07.38-1.08.37-1.07.41-1.07.44L88.48,12l-1.08.44-1.07.43c-.36.16-.72.29-1.07.44l-1.08.48-1.07.5L82,14.84l-1.08.5-1.07.51c-.35.17-.72.32-1.07.5l-1.08.56c-.36.18-.71.38-1.07.57l-1.07.57-1.08.57-1.07.57-1.71,1c-.57.33-1.13.68-1.7,1s-1.15.67-1.71,1-1.15.68-1.71,1-1.14.77-1.71,1.14l-1.62,1.08-.09.06c-.56.38-1.14.74-1.71,1.13l-1.7,1.25c-.58.41-1.14.83-1.71,1.26s-1.15.83-1.71,1.26-1.14.89-1.71,1.34L53,33.15c-.57.46-1.14.92-1.7,1.39s-1.15,1-1.71,1.48-1.14,1-1.71,1.53-1.15,1-1.71,1.54S45,40.18,44.41,40.72l-1.71,1.7c-.56.56-1.15,1.11-1.7,1.69s-1.14,1.22-1.71,1.82-1.15,1.24-1.71,1.86S36.43,49,35.87,49.68s-1.14,1.36-1.71,2-1.15,1.36-1.7,2.05-1.15,1.44-1.71,2.17l-.07.09c-.56.71-1.1,1.44-1.64,2.16s-1.15,1.52-1.71,2.29-1.14,1.67-1.71,2.5-1.15,1.65-1.71,2.49-1.14,1.82-1.7,2.74S21.05,70,20.5,71s-1.15,2-1.71,3-1.16,2-1.71,3.09-1.14,2.25-1.71,3.39-1.16,2.3-1.7,3.47S12.52,86.54,12,87.85,10.8,90.6,10.25,92s-1.17,3-1.71,4.5c-.61,1.71-1.16,3.45-1.71,5.19-.61,2-1.17,3.91-1.71,5.9q-.93,3.48-1.7,7c-.66,3-1.24,6.06-1.71,9.14a150,150,0,0,0,0,45.17c.47,3.09,1,6.14,1.71,9.15q.77,3.57,1.7,7.05c.54,2,1.1,4,1.71,5.9.55,1.74,1.1,3.48,1.71,5.19.54,1.52,1.12,3,1.71,4.5s1.12,2.78,1.71,4.15,1.11,2.63,1.71,3.92,1.13,2.32,1.7,3.47,1.12,2.28,1.71,3.4,1.14,2,1.71,3.08,1.12,2,1.71,3,1.13,1.85,1.71,2.77,1.12,1.83,1.7,2.73,1.14,1.66,1.71,2.5,1.13,1.67,1.71,2.49,1.14,1.53,1.71,2.29,1.08,1.45,1.64,2.17l.07.09c.56.73,1.13,1.45,1.71,2.17s1.13,1.36,1.7,2,1.13,1.38,1.71,2S37,244.32,37.58,245s1.13,1.25,1.71,1.86S40.42,248,41,248.64s1.14,1.13,1.7,1.69,1.14,1.14,1.71,1.69,1.13,1.1,1.71,1.64,1.14,1,1.71,1.53,1.13,1,1.71,1.54,1.13,1,1.71,1.48,1.13.92,1.7,1.39,1.14.94,1.71,1.39,1.13.91,1.71,1.35,1.14.84,1.71,1.26,1.13.85,1.71,1.26,1.13.84,1.7,1.24c.35.25.71.47,1.06.7l.65.44,1.71,1.14c.57.37,1.13.77,1.71,1.14s1.14.68,1.71,1,1.13.68,1.71,1,1.13.69,1.7,1l1.71,1,1.07.57,1.08.57,1.07.57c.36.19.71.39,1.07.57l1.08.56c.35.18.72.33,1.07.51l1.07.5,1.08.5,1.07.51,1.07.5,1.08.48c.35.15.71.28,1.07.44l1.07.44,1.08.43,1.07.44,1.07.44,1.07.41,1.08.38,1.07.37,1.07.38,1.08.38c.36.12.71.26,1.07.37l1.07.35,1.08.31,1.07.32,1.07.32,1.08.31,1.07.32,1.07.29,1.08.26,1.07.26,1.07.25,1.08.26,1.07.26,1.07.25,1.07.19c.36.08.72.13,1.08.2l1.07.2,1.07.2,1.08.2,1.07.2,1.07.15,1.08.15,1.07.14,1.07.14,1.08.14,1.07.14,1.07.13,1.08.08,1.07.09,1.07.08,1.07.09,1.08.08,1.07.08,1.07.05,1.08,0,1.07,0,1.07,0,1.08,0c.36,0,.71,0,1.07,0l1,0h19.5c.44,0,.87,0,1.31,0,1.85,0,3.7-.05,5.53-.15s3.7-.25,5.53-.42,3.7-.38,5.53-.63,3.7-.53,5.53-.85,3.7-.68,5.53-1.08,3.7-.84,5.53-1.33,3.7-1.05,5.53-1.62,3.7-1.21,5.53-1.87,3.7-1.39,5.53-2.14,3.71-1.57,5.53-2.42,3.71-1.77,5.53-2.71,3.71-2,5.53-3,3.71-2.22,5.53-3.39c1-.67,2.06-1.35,3.07-2.05q1.24-.84,2.46-1.71a142.25,142.25,0,0,0,29.44-28.4,148.39,148.39,0,0,0,0-180.63ZM237.05,209.69c-1.73,2.61-3.56,5.16-5.53,7.64-1.75,2.19-3.6,4.32-5.53,6.41-.48.51-.93,1-1.42,1.55-1.34,1.39-2.72,2.73-4.11,4-1.8,1.69-3.65,3.29-5.53,4.83s-3.65,2.88-5.53,4.22-3.66,2.52-5.53,3.68-3.66,2.22-5.53,3.23c-1.23.66-2.46,1.31-3.71,1.92-.6.3-1.21.57-1.82.85-1.83.85-3.67,1.67-5.53,2.41s-3.67,1.39-5.53,2-3.67,1.18-5.53,1.69-3.68,1-5.53,1.36-3.68.74-5.53,1-3.68.55-5.53.75-3.68.33-5.53.43-3.68.15-5.53.15c-.36,0-.71,0-1.07,0l-1.07,0-1.08,0-1.07,0c-.36,0-.72,0-1.07,0l-1.08-.08-1.07-.07-1.07-.08-1.08-.08-1.07-.12-1.07-.12-1.08-.12-1.07-.13-1.07-.17-1.08-.16-1.07-.16-1.07-.19-1.08-.2-1.07-.21-1.07-.2-1.07-.25c-.36-.07-.72-.16-1.08-.24l-1.07-.25-1.07-.26-1.08-.29-1.07-.3-1.07-.29-1.08-.32c-.36-.1-.71-.22-1.07-.33l-1.07-.34-1.08-.34-1.07-.38-1.07-.39-1.08-.38-1.07-.4-1.07-.44-1.07-.43-1.08-.44-1.07-.47c-.36-.15-.72-.32-1.07-.48l-1.08-.49-1.07-.49c-.36-.17-.72-.36-1.07-.54l-1.08-.54-1.07-.53-1.07-.58-1.08-.59-1.07-.59c-.36-.2-.72-.4-1.07-.61l-1.08-.65-1.07-.65c-.36-.22-.72-.42-1.07-.65s-.72-.47-1.08-.7l-1.07-.71-1.07-.71c-.36-.24-.72-.49-1.07-.75l-1.08-.77-1.07-.77-1.07-.8-1.08-.84-1.07-.84c-.36-.28-.72-.56-1.07-.85L81,233.11l-1.07-.92c-.36-.3-.72-.6-1.07-.92s-.72-.66-1.08-1l-1.07-1c-.36-.34-.72-.66-1.07-1l-1.08-1.07-1.07-1.07c-.29-.3-.58-.57-.87-.87s-.55-.62-.84-.92c-.58-.61-1.14-1.24-1.7-1.86s-1.16-1.27-1.71-1.92-1.15-1.38-1.71-2.07-1.16-1.39-1.71-2.11-1.14-1.52-1.71-2.29-1.15-1.56-1.71-2.35-1.14-1.69-1.7-2.55-1.16-1.78-1.71-2.67-1.16-1.89-1.71-2.85-1.15-2.07-1.71-3.11-1.16-2.19-1.71-3.3-1.16-2.38-1.7-3.59-1.17-2.69-1.71-4-1.17-3-1.71-4.52q-.91-2.58-1.71-5.2c-.62-2.07-1.2-4.15-1.71-6.24-.68-2.83-1.24-5.68-1.71-8.54a117,117,0,0,1,0-37.54c.47-2.86,1-5.71,1.71-8.54.51-2.09,1.09-4.17,1.71-6.24q.8-2.62,1.71-5.2c.54-1.52,1.1-3,1.71-4.52s1.1-2.71,1.71-4,1.12-2.4,1.7-3.59,1.13-2.21,1.71-3.3,1.12-2.09,1.71-3.12,1.13-1.9,1.71-2.84,1.12-1.79,1.71-2.68,1.12-1.7,1.7-2.54,1.14-1.58,1.71-2.36,1.12-1.53,1.71-2.29,1.14-1.41,1.71-2.11,1.12-1.38,1.71-2.06,1.13-1.28,1.71-1.92,1.12-1.25,1.7-1.87c.29-.3.55-.62.84-.92l.87-.86,1.07-1.08,1.08-1.06c.35-.34.71-.66,1.07-1l1.07-1,1.08-1,1.07-.92L81,59.65l1.08-.9c.35-.29.71-.57,1.07-.85L84.18,57l1.08-.82c.35-.27.71-.53,1.07-.79l1.07-.79,1.08-.77c.35-.25.71-.48,1.07-.73l1.07-.73,1.07-.71L92.77,51l1.07-.68,1.07-.66L96,49.07l1.07-.61,1-.61h0c.36-.2.72-.37,1.08-.56s.71-.38,1.07-.57l1.07-.56,1.08-.54c.35-.18.71-.34,1.07-.51l1.07-.51,1.08-.5,1.07-.47,1.07-.45,1.08-.46,1.07-.45,1.07-.4,1.07-.41,1.08-.4,1.07-.38,1.07-.36,1.08-.35c.36-.12.71-.25,1.07-.36l1.07-.32L119.6,39l1.07-.31c.36-.1.71-.21,1.07-.3s.72-.18,1.08-.27l1.07-.26,1.07-.26,1.08-.26,1.07-.22,1.07-.21,1.07-.22c.36-.06.72-.14,1.08-.21l1.07-.17,1.07-.17,1.08-.17c.36,0,.71-.11,1.07-.15l1.07-.13,1.08-.13,1.07-.12,1.07-.11c.36,0,.72,0,1.08-.08l1.07-.09,1.07-.08,1.08-.06,1.07,0,1.07,0,1.08,0h2.14c1.85,0,3.69,0,5.53.14s3.69.23,5.53.43,3.69.46,5.53.75,3.69.65,5.53,1,3.7.84,5.53,1.34,3.7,1.09,5.53,1.71,3.7,1.29,5.53,2,3.7,1.53,5.53,2.39,3.71,1.81,5.53,2.8,3.71,2.06,5.53,3.19,3.71,2.42,5.53,3.72,3.72,2.73,5.53,4.2,3.73,3.16,5.53,4.85c1.39,1.3,2.77,2.63,4.11,4,.49.51.94,1,1.42,1.56,1.93,2.08,3.78,4.21,5.53,6.41,2,2.47,3.8,5,5.53,7.63C262.28,121,262.27,171.72,237.05,209.69Z"/><path class="cls-3" d="M211.31,121.62c-.58-1.51-1.22-3-1.9-4.48a70.71,70.71,0,0,0-5.53-9.79,69.67,69.67,0,0,0-5.53-7.15c-.66-.74-1.32-1.47-2-2.19-1.14-1.18-2.32-2.29-3.52-3.37a70.62,70.62,0,0,0-5.53-4.5c-1.8-1.3-3.65-2.48-5.53-3.58s-3.66-2-5.53-2.89l-1-.46q-2.24-1-4.52-1.81-2.74-1-5.53-1.71c-1.84-.48-3.68-.88-5.54-1.19S156,78,154.1,77.79s-3.68-.24-5.53-.23c-.35,0-.71,0-1.07,0s-.71,0-1.07,0-.72.05-1.08.07l-1.07.07-1.07.07c-.36,0-.72,0-1.08.07l-1.07.12c-.36,0-.71.11-1.07.16l-1.07.16c-.36,0-.72.09-1.08.15s-.72.09-1.07.16l-1.07.22-1.08.25-1.07.25-1.07.25c-.36.09-.72.15-1.08.24s-.71.23-1.07.33l-1.07.35-1.08.34-1.07.34c-.36.12-.72.22-1.07.35s-.72.3-1.08.44-.71.3-1.07.45l-1.07.44c-.3.12-.59.23-.88.36l-.2.08-1.07.49c-.36.17-.71.37-1.07.55l-1.08.55-1.07.55c-.35.19-.72.35-1.07.55l-.17.09c-.31.17-.6.37-.91.55s-.71.44-1.07.66-.72.43-1.07.66-.72.43-1.08.66-.71.52-1.07.77l-1.07.77c-.36.26-.72.5-1.08.77l-1.07.82c-.36.28-.71.59-1.07.89l-1.08.89c-.35.3-.72.58-1.07.9s-.71.67-1.07,1-.72.69-1.07,1-.73.68-1.08,1c-.18.18-.37.34-.54.52s-.35.39-.53.58c-.37.39-.72.78-1.07,1.17s-.73.8-1.08,1.21-.72.86-1.07,1.3-.73.87-1.07,1.32-.72,1-1.08,1.44-.72,1-1.07,1.48-.72,1.06-1.07,1.6-.73,1.12-1.08,1.68S91,111,90.62,111.58s-.72,1.3-1.07,2-.73,1.38-1.08,2.07-.73,1.5-1.07,2.26-.73,1.69-1.07,2.54-.74,1.89-1.08,2.84-.74,2.17-1.07,3.26c-.39,1.3-.76,2.61-1.07,3.92-.21.87-.4,1.74-.58,2.62s-.35,1.81-.5,2.73a73.68,73.68,0,0,0,0,23.71c.15.91.32,1.82.5,2.72s.37,1.75.58,2.62c.31,1.32.68,2.62,1.07,3.92.33,1.09.69,2.18,1.07,3.26s.7,1.9,1.08,2.84.69,1.7,1.07,2.54.7,1.51,1.07,2.26.71,1.38,1.08,2.07.7,1.31,1.07,1.95.71,1.2,1.07,1.79.71,1.12,1.08,1.68.7,1.07,1.07,1.6.71,1,1.07,1.48.71,1,1.08,1.44.71.88,1.07,1.32.7.87,1.07,1.3.72.8,1.08,1.2.7.79,1.07,1.18c.18.18.34.38.52.57l.55.52c.35.36.72.69,1.08,1l1.07,1c.36.33.7.7,1.07,1s.72.59,1.07.9l1.08.88c.36.29.71.59,1.07.87s.71.61,1.07.88.72.5,1.08.75.71.5,1.07.75l1.07.74c.37.24.71.51,1.08.75s.72.41,1.07.63l1.07.63,1.08.62c.36.21.71.43,1.07.63s.72.36,1.07.55l1.08.52,1.07.51c.36.17.71.36,1.07.52s.72.33,1.08.48.71.27,1.07.42l1.07.41,1.08.42c.36.13.71.29,1.07.42s.72.21,1.07.33.72.21,1.08.32l.61.19.46.14,1.07.32,1.08.29c.35.09.71.15,1.07.23l1.07.24,1.08.24,1.07.23c.36.07.71.11,1.07.17l1.08.15,1.07.15c.36,0,.71.11,1.07.15l1.07.14,1.08.06,1.07.07,1.07.07,1.08.06c.36,0,.71,0,1.07,0s.72,0,1.07,0c1.85,0,3.69-.09,5.53-.24s3.7-.4,5.53-.71,3.71-.72,5.54-1.19c.73-.2,1.47-.37,2.2-.59,1.12-.34,2.22-.72,3.33-1.11,1.86-.67,3.71-1.41,5.53-2.25l.31-.13c1.77-.84,3.51-1.75,5.22-2.75,1.88-1.11,3.73-2.32,5.53-3.62a70.62,70.62,0,0,0,5.53-4.5c1.2-1.08,2.38-2.2,3.52-3.38.69-.72,1.35-1.45,2-2.19a70.42,70.42,0,0,0,11.06-16.94c.68-1.48,1.32-3,1.9-4.48a72.66,72.66,0,0,0,3.63-13.05,73.59,73.59,0,0,0,0-25.89A72.66,72.66,0,0,0,211.31,121.62ZM203.88,164a62.77,62.77,0,0,1-5.53,14.71,61.43,61.43,0,0,1-9.92,13.74c-.38.39-.76.76-1.14,1.13a59.24,59.24,0,0,1-5.53,4.82,60.3,60.3,0,0,1-5.53,3.74q-2.59,1.55-5.28,2.81l-.25.1a58.53,58.53,0,0,1-5.53,2.16,54.39,54.39,0,0,1-5.54,1.57c-1.83.42-3.67.78-5.53,1s-3.68.35-5.53.4H147.5c-.36,0-.71,0-1.07,0s-.72,0-1.08,0-.71-.05-1.07-.07-.71,0-1.07-.06l-1.08-.07-1.07-.07c-.36,0-.71-.11-1.07-.16s-.72-.1-1.07-.15-.72-.09-1.08-.15-.72-.09-1.07-.15-.72-.16-1.07-.24l-1.08-.23-1.07-.24c-.36-.09-.72-.15-1.07-.24s-.72-.22-1.08-.32-.71-.22-1.07-.33-.72-.21-1.07-.33-.72-.2-1.08-.33-.71-.28-1.07-.42l-1.07-.41c-.36-.15-.72-.28-1.08-.42l-1.07-.44c-.36-.16-.71-.35-1.07-.52l-1.08-.52-1.07-.52c-.36-.19-.72-.37-1.07-.57s-.72-.42-1.08-.62l-1.07-.63c-.36-.22-.72-.41-1.07-.63s-.72-.48-1.08-.72-.71-.5-1.07-.75l-1.07-.74-1.08-.79c-.36-.28-.71-.59-1.07-.88s-.72-.58-1.07-.88-.73-.57-1.08-.88-.71-.69-1.07-1-.72-.68-1.07-1-.73-.67-1.08-1c-.07-.08-.15-.14-.22-.22-.29-.3-.57-.62-.85-.92s-.72-.78-1.07-1.18-.72-.85-1.07-1.28-.73-.86-1.08-1.3-.72-1-1.07-1.44-.73-1-1.07-1.5-.73-1.06-1.08-1.6-.72-1.16-1.07-1.75-.73-1.23-1.07-1.86-.74-1.34-1.08-2-.73-1.5-1.07-2.26-.73-1.68-1.07-2.53-.74-1.91-1.08-2.88c-.39-1.13-.75-2.27-1.07-3.42-.42-1.48-.77-3-1.07-4.48a64.29,64.29,0,0,1-1.08-7.56,65.33,65.33,0,0,1,0-10.28,64.12,64.12,0,0,1,1.08-7.55c.3-1.51.65-3,1.07-4.49.32-1.15.68-2.29,1.07-3.42.34-1,.69-1.92,1.08-2.88s.69-1.69,1.07-2.52.7-1.51,1.07-2.26.71-1.34,1.08-2,.7-1.25,1.07-1.86.7-1.17,1.07-1.75.71-1.07,1.08-1.6.7-1,1.07-1.5.7-1,1.07-1.44.72-.87,1.08-1.3.7-.86,1.07-1.28.71-.79,1.07-1.18.56-.62.85-.92c.07-.08.15-.14.22-.22.35-.36.72-.69,1.08-1l1.07-1,1.07-1,1.08-.9c.35-.3.71-.61,1.07-.9l1.07-.85,1.08-.78,1.07-.77c.36-.25.71-.51,1.07-.75l1.08-.67,1.07-.66c.35-.21.69-.44,1-.64l0,0c.36-.21.72-.37,1.08-.56s.71-.37,1.07-.56l1.07-.56c.36-.18.71-.38,1.08-.55s.71-.29,1.07-.45l1.07-.45c.36-.15.72-.31,1.08-.45s.71-.31,1.07-.45.72-.22,1.07-.35l1.08-.35,1.07-.34c.36-.11.71-.25,1.07-.35l1.08-.27c.35-.1.71-.17,1.07-.26l1.07-.25c.36-.08.72-.18,1.08-.25l1.07-.2c.36-.07.71-.11,1.07-.16l1.08-.17,1.07-.16,1.07-.14,1.07-.07,1.08-.07c.36,0,.71-.06,1.07-.07s.72-.07,1.07-.08.72,0,1.08,0l1.07,0h1.07c1.85.06,3.7.18,5.53.41s3.7.55,5.53,1a54.51,54.51,0,0,1,5.54,1.59,57.83,57.83,0,0,1,5.53,2.2,55.4,55.4,0,0,1,11.06,6.66,59.36,59.36,0,0,1,5.53,4.83c.37.36.76.7,1.13,1.08a60.43,60.43,0,0,1,4.4,5.12,61.58,61.58,0,0,1,5.53,8.63,62.53,62.53,0,0,1,5.53,14.7A63.93,63.93,0,0,1,203.88,164Z"/><path class="cls-4" d="M176.2,122.59c-.45-.52-.87-1-1.34-1.54a40.76,40.76,0,0,0-4.19-3.75,39.63,39.63,0,0,0-5.53-3.64,39,39,0,0,0-5.53-2.48,39.8,39.8,0,0,0-11.06-2.24c-.36,0-.72,0-1.07,0H146.4c-.35,0-.71,0-1.07,0s-.71,0-1.07.08l-1.08.07c-.35,0-.71,0-1.07.09s-.71.11-1.07.16-.72.1-1.08.17-.71.1-1.07.17l-1.07.26c-.36.08-.72.16-1.07.26s-.72.17-1.08.28-.71.23-1.07.35l-1.07.35-1.08.39c-.36.14-.71.31-1.07.46s-.72.29-1.07.45l-1.08.52c-.36.18-.71.38-1.07.57s-.72.36-1.07.56l-.15.08c-.31.18-.62.39-.93.58s-.72.44-1.07.68-.72.5-1.07.75l-1.08.78-1.07.86c-.36.29-.72.59-1.07.9l-1.07,1c-.37.34-.73.68-1.08,1-.1.1-.21.19-.31.3-.27.28-.5.58-.76.87s-.72.82-1.07,1.24-.74.83-1.08,1.27-.71,1-1.07,1.52-.74,1-1.07,1.52-.72,1.24-1.08,1.86-.74,1.27-1.07,1.92-.73,1.6-1.07,2.4-.75,1.87-1.08,2.82c-.41,1.2-.77,2.41-1.07,3.64a43.34,43.34,0,0,0-1.07,6.07,43.92,43.92,0,0,0,0,8.58,43.09,43.09,0,0,0,1.07,6.07c.3,1.23.66,2.45,1.07,3.65.33.94.68,1.88,1.08,2.81s.68,1.62,1.07,2.4.71,1.28,1.07,1.92.69,1.26,1.08,1.86.71,1,1.07,1.52.69,1,1.07,1.52.72.85,1.08,1.27.7.83,1.07,1.24.49.59.76.87c.1.11.21.2.31.3.35.36.72.69,1.08,1s.7.69,1.07,1,.71.59,1.07.88.71.6,1.07.88.72.51,1.08.77l1.07.74,1.07.7,1.08.62c.36.21.71.44,1.07.63s.72.35,1.07.52.72.36,1.08.52.71.33,1.07.48.71.28,1.07.42.71.29,1.08.42.71.23,1.07.34.71.23,1.07.33l1.08.32c.35.09.71.15,1.07.24l1.07.24,1.07.2,1.08.15c.36.05.71.12,1.07.16l1.07.09,1.08.08c.36,0,.71.06,1.07.07s.72,0,1.07,0h1.08c.35,0,.71,0,1.07,0a39.79,39.79,0,0,0,5.53-.69,38.44,38.44,0,0,0,5.53-1.53c1.07-.38,2.13-.8,3.17-1.28.8-.36,1.58-.79,2.36-1.21a42.16,42.16,0,0,0,9.72-7.39c.47-.49.89-1,1.34-1.54a41.53,41.53,0,0,0,5.53-8,43.14,43.14,0,0,0,0-39.67A41.3,41.3,0,0,0,176.2,122.59Z"/><path class="cls-5" d="M195.24,126.58c-.73-1.68-1.55-3.34-2.45-5a55,55,0,0,0-5.53-8.07c-.9-1.09-1.83-2.16-2.82-3.19s-1.79-1.76-2.71-2.59a53.77,53.77,0,0,0-10.42-7.35c-.22-.11-.42-.24-.64-.35a51.22,51.22,0,0,0-5.53-2.46,52,52,0,0,0-5.53-1.73,50.15,50.15,0,0,0-5.53-1.12,51.1,51.1,0,0,0-5.53-.45h-1.07c-.36,0-.72,0-1.07,0s-.72,0-1.08,0-.71.06-1.07.08l-1.07.08-1.07.07c-.36,0-.72,0-1.08.09s-.71.12-1.07.17-.72.1-1.07.16-.72.1-1.08.17l-1.07.18-1.07.26-1.08.26-1.07.25c-.36.1-.72.19-1.07.3s-.72.24-1.08.35l-1.07.36c-.35.12-.72.22-1.07.35l-1.07.41c-.36.14-.72.31-1.08.46l-1.07.45c-.36.16-.72.29-1.07.46s-.72.37-1.08.55-.71.38-1.07.57l-.22.11c-.28.16-.57.3-.85.45s-.51.26-.75.4l-.33.2c-.36.21-.71.45-1.07.67s-.72.44-1.07.68-.72.47-1.07.72-.72.52-1.08.78-.72.51-1.07.78-.72.58-1.07.87-.72.59-1.08.9-.72.59-1.07.91-.71.69-1.07,1l-1.08,1c-.17.18-.35.33-.52.51l-.55.6-1.07,1.17c-.37.42-.72.84-1.07,1.27s-.73.87-1.08,1.32-.72,1-1.07,1.44-.72,1-1.07,1.53-.73,1.08-1.08,1.63-.72,1.19-1.07,1.79-.73,1.31-1.07,2-.73,1.45-1.08,2.18-.73,1.63-1.07,2.45c-.21.51-.41,1-.61,1.54s-.31.86-.46,1.29c-.39,1.13-.75,2.27-1.07,3.42-.42,1.51-.78,3-1.08,4.57a57.69,57.69,0,0,0,0,21.6c.3,1.54.65,3.07,1.08,4.58.32,1.15.68,2.29,1.07,3.42.15.43.3.86.46,1.28s.4,1,.61,1.54c.34.83.7,1.64,1.07,2.45s.7,1.46,1.08,2.18.7,1.33,1.07,2,.7,1.19,1.07,1.78.71,1.1,1.08,1.64.7,1,1.07,1.53.7,1,1.07,1.44.71.88,1.08,1.32.7.85,1.07,1.26.71.79,1.07,1.18l.54.58c.17.18.36.34.53.52l1.08,1c.36.34.71.7,1.07,1s.71.62,1.07.93l1.08.88c.36.29.71.6,1.07.88l1.07.8,1.08.75,1.07.74c.36.24.71.47,1.07.69l1.07.63c.36.21.72.43,1.08.63s.71.42,1.07.61.72.34,1.07.52l1.08.52c.36.17.71.36,1.07.52s.72.29,1.07.44l.08,0c.33.14.66.26,1,.39s.71.29,1.07.42.71.27,1.07.39l1.07.33,1.08.33c.36.1.71.23,1.07.33l1.07.25,1.08.24c.35.08.71.17,1.07.24l1.07.23,1.08.15,1.07.16c.36,0,.71.11,1.07.15l1.08.11,1.07.07,1.07.07c.36,0,.72.06,1.07.07h3.22a51.14,51.14,0,0,0,5.53-.48,54.35,54.35,0,0,0,11.06-2.82c.5-.19,1-.41,1.48-.61s1.23-.48,1.83-.76c.75-.34,1.48-.76,2.22-1.14a51.94,51.94,0,0,0,5.53-3.29,53.22,53.22,0,0,0,5.53-4.39c.92-.83,1.84-1.66,2.71-2.57s1.92-2.09,2.82-3.18a54.87,54.87,0,0,0,5.53-8.06q1.35-2.43,2.45-5a55.26,55.26,0,0,0,3.07-9.12,57.46,57.46,0,0,0,0-27.28A55.26,55.26,0,0,0,195.24,126.58Zm-8,42.34a46.24,46.24,0,0,1-5.53,9.78,46.89,46.89,0,0,1-3.85,4.64c-.54.56-1.12,1.06-1.68,1.59a44.71,44.71,0,0,1-11.06,7.63l-.53.28a46,46,0,0,1-10.53,3.31,42.79,42.79,0,0,1-5.53.66c-.35,0-.71,0-1.07,0h-1.07c-.36,0-.72,0-1.08,0l-1.07-.06-1.07-.07c-.36,0-.72,0-1.07-.07l-1.08-.14c-.36,0-.71-.1-1.07-.15s-.72-.09-1.07-.15l-1.08-.22c-.36-.07-.71-.16-1.07-.24s-.72-.15-1.07-.24l-1.08-.3c-.36-.1-.71-.22-1.07-.33s-.72-.2-1.07-.32l-1.08-.4-1.07-.42c-.35-.14-.72-.27-1.07-.42l-1.07-.5-1.08-.52c-.35-.18-.72-.33-1.07-.52s-.71-.42-1.07-.63l-1.08-.62c-.35-.22-.72-.43-1.07-.66s-.71-.5-1.07-.74l-1.08-.75-1.07-.82c-.36-.28-.72-.58-1.07-.88s-.72-.57-1.07-.88-.72-.69-1.08-1-.72-.68-1.07-1l-.42-.4c-.23-.25-.43-.51-.65-.75-.37-.41-.72-.83-1.08-1.24s-.73-.81-1.07-1.23-.72-1-1.07-1.45-.73-1-1.08-1.52-.73-1.08-1.07-1.63-.72-1.26-1.07-1.89-.74-1.32-1.07-2-.74-1.6-1.08-2.41-.74-1.86-1.07-2.8c-.4-1.14-.77-2.29-1.07-3.45a48.79,48.79,0,0,1,0-24.68c.3-1.16.67-2.31,1.07-3.45.33-.94.68-1.88,1.07-2.81s.69-1.61,1.08-2.4.7-1.34,1.07-2,.69-1.27,1.07-1.89.71-1.09,1.07-1.63.71-1,1.08-1.52.69-1,1.07-1.45.72-.82,1.07-1.24.71-.83,1.08-1.23c.22-.25.42-.51.65-.75l.42-.41c.35-.35.71-.69,1.07-1s.71-.68,1.08-1,.71-.6,1.07-.9.71-.61,1.07-.9.72-.52,1.07-.78l1.08-.77c.35-.25.71-.48,1.07-.71l1.07-.67c.31-.18.61-.39.92-.57l.16-.08c.35-.2.71-.37,1.07-.56l1.07-.56c.36-.17.71-.37,1.08-.54s.71-.3,1.07-.45l1.07-.45c.36-.14.71-.31,1.07-.44s.72-.23,1.08-.35l1.07-.35c.36-.11.71-.25,1.07-.35s.72-.17,1.08-.26l1.07-.26,1.07-.25,1.08-.19,1.07-.16c.36-.06.71-.12,1.07-.16s.72-.1,1.08-.13.71,0,1.07-.07l1.07-.08c.36,0,.72,0,1.07-.06s.72,0,1.08,0l1.07,0c.36,0,.72,0,1.07,0a46.06,46.06,0,0,1,11.06,2,42.27,42.27,0,0,1,5.53,2.22,43.21,43.21,0,0,1,5.53,3.19,45,45,0,0,1,5.53,4.42c.56.53,1.13,1,1.67,1.6a48.18,48.18,0,0,1,3.86,4.64,46.31,46.31,0,0,1,5.53,9.79A48.14,48.14,0,0,1,187.26,168.92Z"/><path class="cls-6" d="M226,79.56q-2.61-3.25-5.53-6.35c-.23-.25-.45-.51-.69-.76-1.57-1.63-3.19-3.18-4.84-4.67q-2.7-2.48-5.53-4.7c-1.81-1.43-3.65-2.8-5.53-4.08s-3.66-2.39-5.53-3.49-3.66-2.1-5.53-3-3.66-1.77-5.53-2.57-3.66-1.54-5.53-2.21-3.67-1.24-5.53-1.79c-.64-.19-1.28-.39-1.93-.57-1.2-.32-2.39-.62-3.6-.9-1.83-.43-3.68-.78-5.53-1.1s-3.68-.59-5.53-.8-3.68-.36-5.53-.47-3.68-.15-5.53-.15H147.5l-1.07,0-1.08,0-1.07,0-1.07,0-1.07.07-1.08.09-1.07.08c-.36,0-.72,0-1.07.09l-1.08.13-1.07.12-1.07.13-1.08.15-1.07.17-1.07.17-1.08.17c-.36.06-.71.14-1.07.21l-1.07.22c-.36.07-.72.13-1.08.21l-1.07.23-1.07.26L125,44.8l-1.07.26-1,.26-.11,0-1.08.3-1.07.31-1.07.31-1.07.36-1.08.35-1.07.36-1.07.38-1.08.41-1.07.4-1.07.41-1.08.46-1.07.45-1.07.46-1.08.49-1.07.51c-.36.17-.72.33-1.07.51l-1.08.52-1.07.56-1.07.57-1.08.56-.09.05c-.33.18-.65.38-1,.57l-1.07.61-1.08.62-1.07.67L96,57.24c-.36.22-.72.44-1.07.67s-.72.49-1.08.73l-1.07.73-1.07.74c-.37.26-.72.53-1.08.79l-1.07.79-1.07.81-1.08.86c-.35.28-.72.56-1.07.85l-1.07.89L84.18,66c-.35.31-.72.6-1.07.92l-1.07,1-1.08,1-1.07,1c-.36.35-.71.72-1.07,1.08s-.72.7-1.08,1.07l-.36.36c-.24.25-.47.52-.71.78S76,74,75.6,74.4l-1.08,1.17c-.35.41-.72.81-1.07,1.22-.58.68-1.14,1.37-1.71,2.06S70.59,80.26,70,81s-1.15,1.52-1.71,2.29-1.15,1.6-1.71,2.41-1.16,1.69-1.71,2.54S63.76,90.06,63.2,91,62,92.93,61.49,93.91s-1.15,2.11-1.7,3.18-1.16,2.34-1.71,3.51-1.17,2.56-1.71,3.86-1.17,2.87-1.71,4.32S53.53,112,53,113.58a1.18,1.18,0,0,0-.07.2c-.62,2-1.2,4-1.71,6q-1,4-1.7,8.08a109.26,109.26,0,0,0,0,37c.46,2.71,1,5.41,1.7,8.08.51,2,1.09,4,1.71,6,0,.06,0,.13.07.2.51,1.61,1,3.21,1.64,4.8s1.11,2.89,1.71,4.32,1.11,2.58,1.71,3.85,1.11,2.35,1.71,3.51,1.12,2.13,1.7,3.19,1.13,1.94,1.71,2.91,1.12,1.86,1.71,2.77,1.13,1.7,1.71,2.55,1.13,1.61,1.71,2.4,1.12,1.54,1.71,2.3,1.13,1.42,1.7,2.12,1.13,1.39,1.71,2.07c.35.41.72.81,1.07,1.21s.72.78,1.08,1.17l1.07,1.18c.24.25.47.52.71.77s.25.24.36.37l1.08,1.07c.36.35.71.72,1.07,1.07l1.07,1,1.08,1,1.07,1,1.07.92,1.08.92,1.07.91c.35.29.72.56,1.07.84l1.08.85c.36.27.71.56,1.07.84l1.07.77,1.08.78,1.07.77,1.07.71,1.08.71,1.07.71c.35.23.71.44,1.07.66l1.07.65,1.08.65c.35.21.71.41,1.07.61l1.07.59c.36.2.72.41,1.08.6l1.07.56,1.07.54,1.08.54,1.07.52,1.07.49,1.08.49c.36.16.71.33,1.07.48s.72.29,1.07.44l1.08.44,1.07.43,1.07.41,1.08.38.23.09.84.3,1.07.38,1.08.34,1.07.34,1.07.34,1.07.3,1.08.29c.36.1.71.21,1.07.3L125,248l1.08.25,1.07.25,1.07.25,1.08.2c.35.08.71.14,1.07.21l1.07.21,1.08.18,1.07.16,1.07.17,1.08.16c.35,0,.71.08,1.07.12s.71.09,1.07.12l1.08.13,1.07.1,1.07.08,1.08.07,1.07.08,1.07,0,1.07,0,1.08,0,1.07,0h1.07c1.85,0,3.69,0,5.53-.15s3.69-.26,5.53-.47,3.7-.48,5.53-.79,3.7-.7,5.53-1.12,3.7-.92,5.53-1.46,3.59-1.11,5.37-1.75l.16-.06c1.86-.67,3.71-1.4,5.53-2.19,1.41-.6,2.81-1.23,4.2-1.91.45-.22.89-.46,1.33-.69,1.87-.95,3.72-1.95,5.53-3s3.72-2.28,5.53-3.52,3.73-2.62,5.53-4,3.73-3.06,5.53-4.7c1.65-1.5,3.27-3,4.84-4.68.24-.24.46-.51.69-.76q2.92-3.07,5.53-6.35c2-2.46,3.81-5,5.53-7.59a103,103,0,0,0,5.53-9.36,107.09,107.09,0,0,0,11.22-35.66,109.75,109.75,0,0,0,0-28.4,107.09,107.09,0,0,0-11.22-35.66,103,103,0,0,0-5.53-9.36C229.8,84.56,228,82,226,79.56Zm11.06,43.92a96.41,96.41,0,0,1,0,44A93.85,93.85,0,0,1,231.52,184,92.07,92.07,0,0,1,226,194.6a89,89,0,0,1-5.53,8.14q-2.58,3.39-5.53,6.58c-.45.5-.89,1-1.36,1.49-1.35,1.41-2.75,2.74-4.17,4-1.79,1.64-3.64,3.2-5.53,4.67s-3.64,2.74-5.53,4-3.65,2.3-5.53,3.35c-1.55.86-3.11,1.7-4.69,2.46l-.84.38c-1.82.85-3.66,1.65-5.53,2.37s-3.67,1.33-5.53,1.91-3.67,1.06-5.53,1.51-3.67.82-5.53,1.13-3.68.57-5.53.76-3.68.32-5.53.39-3.68.1-5.53.05l-1.07,0-1.07,0-1.08-.05-1.07-.09-1.07-.08c-.36,0-.72-.05-1.07-.09l-1.08-.12-1.07-.13-1.07-.13-1.08-.16-1.07-.17-1.07-.17-1.08-.21-1.07-.21c-.36-.07-.72-.13-1.07-.21s-.72-.17-1.08-.25l-1.07-.25-1.07-.25-1.08-.3-1.07-.3-1.07-.29-1.08-.34-1.07-.35-1.07-.34-1.08-.38-1.07-.39-1.07-.39-1.07-.44-1.08-.44c-.36-.15-.72-.28-1.07-.44s-.72-.32-1.07-.48l-1.08-.49-1.07-.5c-.36-.17-.72-.36-1.07-.54L111,228.2l-1.07-.55c-.36-.19-.72-.4-1.07-.6l-1.08-.59-1.07-.62-1.07-.65-1.08-.65-1.07-.69-1.07-.72c-.36-.23-.72-.46-1.08-.71l-1.07-.77-1.07-.77-1.08-.8c-.36-.27-.71-.56-1.07-.84s-.72-.55-1.07-.84l-1.07-.89-1.08-.91c-.36-.31-.72-.61-1.07-.93s-.72-.66-1.07-1l-1.08-1-1.07-1-1.07-1.07-.77-.77-.31-.33-1.07-1.18c-.36-.39-.72-.77-1.07-1.17l-1.08-1.22c-.36-.42-.71-.86-1.07-1.29s-.72-.86-1.07-1.3-.72-.92-1.08-1.39-.71-1-1.07-1.44-.73-1-1.07-1.44-.72-1.07-1.08-1.6-.72-1.07-1.07-1.61-.72-1.14-1.07-1.72-.73-1.19-1.08-1.79-.72-1.26-1.07-1.89q-.89-1.59-1.71-3.21c-.59-1.19-1.16-2.39-1.7-3.6s-1.18-2.69-1.71-4c-.61-1.55-1.19-3.11-1.71-4.69-.64-1.91-1.2-3.84-1.71-5.79-.67-2.53-1.25-5.09-1.71-7.67a97,97,0,0,1,0-33.9c.46-2.58,1-5.14,1.71-7.68.51-1.94,1.07-3.87,1.71-5.78q.8-2.37,1.71-4.69c.53-1.36,1.1-2.72,1.71-4.06s1.11-2.4,1.7-3.59,1.12-2.15,1.71-3.21c.35-.64.71-1.27,1.07-1.9s.71-1.19,1.08-1.78.7-1.16,1.07-1.73.72-1.06,1.07-1.6.71-1.07,1.08-1.6.72-1,1.07-1.45S80.6,88.5,81,88s.71-.93,1.08-1.39.71-.86,1.07-1.3L84.18,84l1.08-1.21c.35-.4.71-.78,1.07-1.17l1.07-1.18.32-.34c.25-.26.51-.51.76-.76s.71-.72,1.07-1.07l1.07-1,1.08-1c.35-.33.71-.67,1.07-1l1.07-.92c.36-.31.71-.62,1.08-.92s.71-.58,1.07-.87l1.07-.86,1.07-.83,1.08-.79,1.07-.8,1.07-.74,1.08-.73,1.07-.71,1.07-.68,1.08-.67c.35-.22.71-.43,1.07-.64l1.07-.62c.33-.18.65-.38,1-.56l.11,0c.35-.2.71-.38,1.07-.57l1.07-.56,1.08-.56c.35-.18.71-.34,1.07-.51s.71-.35,1.07-.51l1.08-.51,1.07-.45,1.07-.46,1.08-.45,1.07-.41,1.07-.4,1.07-.41,1.08-.36,1.07-.35c.36-.12.71-.25,1.07-.36l1.08-.31,1.07-.31,1.07-.31c.36-.1.72-.18,1.08-.27s.71-.18,1.07-.27l1.07-.26,1.08-.23,1.07-.22,1.07-.22,1.08-.2,1.07-.17,1.07-.17,1.08-.17,1.07-.12,1.07-.13,1.08-.12c.35,0,.71-.06,1.07-.09l1.07-.09,1.07-.08,1.08-.05,1.07,0,1.07,0c1.85,0,3.69,0,5.53.05s3.69.19,5.53.38,3.7.46,5.53.77,3.7.69,5.53,1.13,3.7.94,5.53,1.51,3.71,1.22,5.53,1.93,3.71,1.5,5.53,2.35,3.72,1.81,5.53,2.83,3.72,2.17,5.53,3.37,3.73,2.56,5.53,4,3.74,3,5.53,4.66c1.42,1.3,2.82,2.63,4.17,4,.47.48.91,1,1.36,1.49q2.94,3.18,5.53,6.58A89,89,0,0,1,226,96.35a91.25,91.25,0,0,1,5.53,10.6A93.85,93.85,0,0,1,237.05,123.48Z"/><path class="cls-7" d="M408.51,136.75,354.26,2.22h19.16L418.8,118.4,464.19,2.22h19.16L429.29,136.75Z"/><path class="cls-7" d="M501,136.75V2.22h88.15V17.14H517.71V60.5h70V75.43h-70v46.39h71.41v14.93Z"/><path class="cls-7" d="M613.58,136.75V2.22h16.74v119.6h62.53v14.93Z"/><path class="cls-7" d="M810.7,136.75V75H732v61.72H715.29V2.22H732V60.1H810.7V2.22h16.74V136.75Z"/><path class="cls-7" d="M853.54,69.59c0-39.74,27-69.59,66.76-69.59s67,29.85,67,69.59-27.23,69.58-67,69.58S853.54,109.32,853.54,69.59Zm116.37,0c0-31.47-19.55-54.67-49.61-54.67-30.26,0-49.42,23.2-49.42,54.67,0,31.26,19.16,54.65,49.42,54.65C950.36,124.24,969.91,100.85,969.91,69.59Z"/><path class="cls-7" d="M464.19,288.11l-11.91-30.05H385.33l-11.91,30.05H354.26l54.25-134.53h20.78l54.06,134.53ZM418.8,170.72l-28.43,72.61h57.08Z"/><path class="cls-7" d="M616,288.11V175L570.36,288.11H563.5L517.71,175V288.11H501V153.58h24l42,103.67,41.75-103.67h24V288.11Z"/><path class="cls-7" d="M664.24,288.11V153.58H681V288.11Z"/><path class="cls-7" d="M707,220.94c0-41.95,30.86-69.58,69.19-69.58,24,0,40.54,10.48,52.23,25l-13.31,8.48c-8.46-10.89-22.79-18.56-38.92-18.56-29.46,0-51.84,22.4-51.84,54.66,0,31.88,22.38,54.67,51.84,54.67,16.13,0,29.44-7.67,36.3-14.52V233.86h-46.4V218.93h62.94v48.41c-12.51,14.11-30.86,23.39-52.84,23.39C737.89,290.73,707,262.7,707,220.94Z"/><path class="cls-7" d="M850.93,220.94c0-39.73,27-69.58,66.76-69.58s67,29.85,67,69.58-27.23,69.59-67,69.59S850.93,260.68,850.93,220.94Zm116.37,0c0-31.46-19.56-54.66-49.61-54.66-30.26,0-49.42,23.2-49.42,54.66,0,31.27,19.16,54.67,49.42,54.67C947.74,275.61,967.3,252.21,967.3,220.94Z"/></g></g></svg>